# 3ds Max Wavefront OBJ Exporter v0.97b - (c)2007 guruware
# File Created: 14.08.2017 16:24:03

mtllib cube_bloom.mtl

#
# object Box001
#

v  -10.0000 0.0000 31.6980
v  -10.0000 0.0000 -28.8018
v  25.5158 0.0000 -28.8018
v  25.5158 0.0000 31.6980
v  -10.0000 20.0000 31.6980
v  25.5158 20.0000 31.6980
v  25.5158 20.0000 -28.8018
v  -10.0000 20.0000 -28.8018
# 8 vertices

vn 0.0000 -1.0000 -0.0000
vn 0.0000 1.0000 -0.0000
vn 0.0000 0.0000 1.0000
vn 1.0000 0.0000 -0.0000
vn 0.0000 0.0000 -1.0000
vn -1.0000 0.0000 -0.0000
# 6 vertex normals

vt 0.4019 0.0705 0.0000
vt 0.4019 0.4524 0.0000
vt 0.0200 0.4524 0.0000
vt 0.0200 0.0705 0.0000
vt 0.0200 0.4970 0.0000
vt 0.4019 0.4970 0.0000
vt 0.4019 0.8789 0.0000
vt 0.0200 0.8789 0.0000
vt 0.4409 0.2837 0.0000
vt 0.6605 0.2837 -0.0000
vt 0.6605 0.5033 -0.0000
vt 0.4409 0.5033 0.0000
vt 0.6934 0.0200 -0.0000
vt 0.9800 0.0200 0.0000
vt 0.9800 0.3066 0.0000
vt 0.6934 0.3066 -0.0000
vt 0.5812 0.7327 0.0000
vt 0.8008 0.7327 0.0000
vt 0.8008 0.9523 0.0000
vt 0.5812 0.9523 0.0000
vt 0.6934 0.3511 0.0000
vt 0.9800 0.3511 -0.0000
vt 0.9800 0.6377 -0.0000
vt 0.6934 0.6377 0.0000
# 24 texture coords

g Box001
usemtl Material__51
s 2
f 1/1/1 2/2/1 3/3/1 4/4/1 
s 4
f 5/5/2 6/6/2 7/7/2 8/8/2 
s 8
f 1/9/3 4/10/3 6/11/3 5/12/3 
s 16
f 4/13/4 3/14/4 7/15/4 6/16/4 
s 32
f 3/17/5 2/18/5 8/19/5 7/20/5 
s 64
f 2/21/6 1/22/6 5/23/6 8/24/6 
# 6 polygons

#
# object Box002
#

v  -46.1908 5.8807 11.6980
v  -46.1908 5.8807 -13.8900
v  38.6611 5.8807 -13.8900
v  38.6611 5.8807 11.6980
v  -46.1908 15.8807 11.6980
v  38.6611 15.8807 11.6980
v  38.6611 15.8807 -13.8900
v  -46.1908 15.8807 -13.8900
# 8 vertices

vn 0.0000 -1.0000 -0.0000
vn 0.0000 1.0000 -0.0000
vn 0.0000 0.0000 1.0000
vn 1.0000 0.0000 -0.0000
vn 0.0000 0.0000 -1.0000
vn -1.0000 0.0000 -0.0000
# 6 vertex normals

vt 0.5335 0.0200 0.0000
vt 0.5335 0.4795 0.0000
vt 0.0741 0.4795 0.0000
vt 0.0741 0.0200 0.0000
vt 0.0741 0.5186 0.0000
vt 0.5335 0.5186 0.0000
vt 0.5335 0.9780 0.0000
vt 0.0741 0.9780 0.0000
vt 0.6387 0.6928 0.0000
vt 0.9259 0.6928 -0.0000
vt 0.9259 0.9800 -0.0000
vt 0.6387 0.9800 0.0000
vt 0.7649 0.5006 0.0000
vt 0.9226 0.5006 0.0000
vt 0.9226 0.6583 0.0000
vt 0.7649 0.6583 0.0000
vt 0.6687 0.0440 -0.0000
vt 0.9560 0.0440 0.0000
vt 0.9560 0.3313 0.0000
vt 0.6687 0.3313 -0.0000
vt 0.5847 0.2963 0.0000
vt 0.7424 0.2963 -0.0000
vt 0.7424 0.4540 -0.0000
vt 0.5847 0.4540 0.0000
# 24 texture coords

g Box002
usemtl Material__76
s 2
f 9/25/7 10/26/7 11/27/7 12/28/7 
s 4
f 13/29/8 14/30/8 15/31/8 16/32/8 
s 8
f 9/33/9 12/34/9 14/35/9 13/36/9 
s 16
f 12/37/10 11/38/10 15/39/10 14/40/10 
s 32
f 11/41/11 10/42/11 16/43/11 15/44/11 
s 64
f 10/45/12 9/46/12 13/47/12 16/48/12 
# 6 polygons

