# This file uses centimeters as units for non-parametric coordinates.

mtllib ssa_2.mtl
g default
v -288.833732 -79.083723 106.114837
v -288.833732 80.078386 106.114837
v 241.578438 -79.083723 106.114837
v 241.578438 80.078386 106.114837
v 241.578438 -79.083723 -18.885166
v 241.578438 80.078386 -18.885166
v -288.833732 -79.083723 -18.885166
v -288.833732 80.078386 -18.885166
v -389.290733 147.430254 25.390140
v -251.141624 147.430254 35.236556
v -112.992530 147.430254 45.492420
v -39.726280 147.430254 52.345901
v 163.305687 147.430254 44.371478
v 332.059670 147.430254 40.094421
v -389.290733 47.430254 25.390140
v -251.141624 47.430254 35.236556
v -112.992530 47.430254 45.492420
v -39.726280 47.430254 52.345901
v 163.305687 47.430254 44.371478
v 332.059670 47.430254 40.094421
v -389.290733 -52.569746 25.390140
v -251.141624 -52.569746 35.236556
v -112.992530 -52.569746 45.492420
v -39.726280 -52.569746 52.345901
v 163.305687 -52.569746 44.371478
v 332.059670 -52.569746 40.094421
v -389.290733 -169.891219 25.390140
v -251.141624 -169.891219 35.236556
v -112.992530 -169.891219 45.492420
v -39.726280 -169.891219 52.345901
v 163.305687 -169.891219 25.856155
v 332.059670 -169.891219 40.094421
v 41.713650 147.430254 50.954452
v 41.713650 47.430254 50.954452
v 41.713650 -52.569746 55.984756
v 41.713650 -169.891219 77.570312
vt 1.000000 0.000000
vt 1.000000 1.000000
vt 0.000000 1.000000
vt 0.000000 0.000000
vt 1.000000 0.000000
vt 1.000000 1.000000
vt 0.000000 1.000000
vt 0.000000 0.000000
vt 1.000000 0.000000
vt 1.000000 1.000000
vt 0.000000 1.000000
vt 0.000000 0.000000
vt 1.000000 0.000000
vt 1.000000 1.000000
vt 0.000000 1.000000
vt 0.000000 0.000000
vt 1.000000 0.000000
vt 1.000000 1.000000
vt 0.000000 1.000000
vt 0.000000 0.000000
vt 1.000000 0.000000
vt 1.000000 1.000000
vt 0.000000 1.000000
vt 0.000000 0.000000
vt 0.252461 0.206448
vt 0.252461 0.423448
vt 0.078861 0.423448
vt 0.078861 0.206448
vt 0.426061 0.206448
vt 0.426061 0.423448
vt 0.599661 0.206448
vt 0.599661 0.423448
vt 0.688004 0.206448
vt 0.773261 0.206448
vt 0.773261 0.423448
vt 0.688004 0.423448
vt 0.946861 0.206448
vt 0.946861 0.423448
vt 0.252461 0.640448
vt 0.078861 0.640448
vt 0.426061 0.640448
vt 0.599661 0.640448
vt 0.773261 0.640448
vt 0.688004 0.640448
vt 0.946861 0.640448
vt 0.252461 0.857448
vt 0.078861 0.857448
vt 0.426061 0.857448
vt 0.599661 0.857448
vt 0.773261 0.857448
vt 0.688004 0.857448
vt 0.946861 0.857448
vn 0.000000 0.000000 1.000000
vn 0.000000 0.000000 1.000000
vn 0.000000 0.000000 1.000000
vn 0.000000 0.000000 1.000000
vn 1.000000 0.000000 0.000000
vn 1.000000 0.000000 0.000000
vn 1.000000 0.000000 0.000000
vn 1.000000 0.000000 0.000000
vn 0.000000 0.000000 -1.000000
vn 0.000000 0.000000 -1.000000
vn 0.000000 0.000000 -1.000000
vn 0.000000 0.000000 -1.000000
vn -1.000000 0.000000 0.000000
vn -1.000000 0.000000 0.000000
vn -1.000000 0.000000 0.000000
vn -1.000000 0.000000 0.000000
vn 0.000000 1.000000 0.000000
vn 0.000000 1.000000 0.000000
vn 0.000000 1.000000 0.000000
vn 0.000000 1.000000 0.000000
vn 0.000000 -1.000000 0.000000
vn 0.000000 -1.000000 0.000000
vn 0.000000 -1.000000 0.000000
vn 0.000000 -1.000000 0.000000
vn 0.072564 0.000000 -0.997364
vn 0.072564 0.000000 -0.997364
vn 0.071093 0.000000 -0.997470
vn 0.071093 0.000000 -0.997470
vn 0.083589 0.000000 -0.996500
vn 0.083589 0.000000 -0.996500
vn 0.072564 0.000000 -0.997364
vn 0.072564 0.000000 -0.997364
vn 0.038084 0.000000 -0.999275
vn 0.045794 -0.006286 -0.998931
vn 0.083589 0.000000 -0.996500
vn 0.083589 0.000000 -0.996500
vn -0.035578 0.000000 -0.999367
vn -0.039703 0.000000 -0.999212
vn -0.044840 -0.006276 -0.998975
vn -0.033011 -0.012561 -0.999376
vn -0.025337 0.000000 -0.999679
vn -0.025337 0.000000 -0.999679
vn -0.044840 -0.006276 -0.998975
vn -0.039703 0.000000 -0.999212
vn 0.072564 0.000000 -0.997364
vn 0.072564 0.000000 -0.997364
vn 0.071093 0.000000 -0.997470
vn 0.071093 0.000000 -0.997470
vn 0.083589 0.000000 -0.996500
vn 0.083589 0.000000 -0.996500
vn 0.072564 0.000000 -0.997364
vn 0.072564 0.000000 -0.997364
vn 0.045794 -0.006286 -0.998931
vn 0.092719 -0.028237 -0.995292
vn 0.083589 0.000000 -0.996500
vn 0.083589 0.000000 -0.996500
vn -0.033011 -0.012561 -0.999376
vn -0.044840 -0.006276 -0.998975
vn -0.079865 0.008617 -0.996768
vn -0.034742 -0.039590 -0.998612
vn -0.025337 0.000000 -0.999679
vn 0.001828 0.039058 -0.999235
vn -0.079865 0.008617 -0.996768
vn -0.044840 -0.006276 -0.998975
vn 0.072564 0.000000 -0.997364
vn 0.072564 0.000000 -0.997364
vn 0.071093 0.000000 -0.997470
vn 0.071093 0.000000 -0.997470
vn 0.083589 0.000000 -0.996500
vn 0.083589 0.000000 -0.996500
vn 0.072564 0.000000 -0.997364
vn 0.072564 0.000000 -0.997364
vn 0.092719 -0.028237 -0.995292
vn 0.131811 -0.043869 -0.990304
vn 0.083589 0.000000 -0.996500
vn 0.083589 0.000000 -0.996500
vn -0.034742 -0.039590 -0.998612
vn -0.079865 0.008617 -0.996768
vn -0.109961 0.029997 -0.993483
vn -0.039133 -0.054360 -0.997754
vn 0.001828 0.039058 -0.999235
vn 0.028990 0.078028 -0.996530
vn -0.109961 0.029997 -0.993483
vn -0.079865 0.008617 -0.996768
vn -0.033011 -0.012561 -0.999376
vn 0.045794 -0.006286 -0.998931
vn 0.038084 0.000000 -0.999275
vn -0.035578 0.000000 -0.999367
vn -0.034742 -0.039590 -0.998612
vn 0.092719 -0.028237 -0.995292
vn 0.045794 -0.006286 -0.998931
vn -0.033011 -0.012561 -0.999376
vn -0.039133 -0.054360 -0.997754
vn 0.131811 -0.043869 -0.990304
vn 0.092719 -0.028237 -0.995292
vn -0.034742 -0.039590 -0.998612
s off
g Mesh
usemtl ss_2_initialShadingGroup1
f 3/1/1 4/2/2 2/3/3 1/4/4
f 5/5/5 6/6/6 4/7/7 3/8/8
f 7/9/9 8/10/10 6/11/11 5/12/12
f 1/13/13 2/14/14 8/15/15 7/16/16
f 4/17/17 6/18/18 8/19/19 2/20/20
f 5/21/21 3/22/22 1/23/23 7/24/24
f 10/25/25 16/26/26 15/27/27 9/28/28
f 11/29/29 17/30/30 16/26/31 10/25/32
f 12/31/33 18/32/34 17/30/35 11/29/36
f 33/33/37 13/34/38 19/35/39 34/36/40
f 14/37/41 20/38/42 19/35/43 13/34/44
f 16/26/45 22/39/46 21/40/47 15/27/48
f 17/30/49 23/41/50 22/39/51 16/26/52
f 18/32/53 24/42/54 23/41/55 17/30/56
f 34/36/57 19/35/58 25/43/59 35/44/60
f 20/38/61 26/45/62 25/43/63 19/35/64
f 22/39/65 28/46/66 27/47/67 21/40/68
f 23/41/69 29/48/70 28/46/71 22/39/72
f 24/42/73 30/49/74 29/48/75 23/41/76
f 35/44/77 25/43/78 31/50/79 36/51/80
f 26/45/81 32/52/82 31/50/83 25/43/84
f 34/36/85 18/32/86 12/31/87 33/33/88
f 35/44/89 24/42/90 18/32/91 34/36/92
f 36/51/93 30/49/94 24/42/95 35/44/96
